# xmcd CD database file
#
# Track frame offsets:
#	150
#	15570
#	35383
#	52894
#	69216
#	84828
#	100019
#	113157
#	124589
#	143865
#	160206
#	176067
#	189914
#	205046
#	222461
#	237172
#
# Disc length: 3348 seconds
#
# Revision: 0
# Processed by: cddbd v1.5.1PL0 Copyright (c) Steve Scherf et al.
# Submitted via: CDex 1.40Release
#
DISCID=c90d1210
DTITLE=George Strait - Latest Greatest Straitest Hits Plus
DYEAR=2000
DGENRE=Country
TTITLE0=The Best Day
TTITLE1=Murder On Music Row (with Alan Jackson)
TTITLE2=Carrying Your Love With Me
TTITLE3=Adalida
TTITLE4=Lead On
TTITLE5=Carried Away
TTITLE6=Blue Clear Sky
TTITLE7=We Really Shouldn't Be Doing This
TTITLE8=I Can Still Make Cheyenne
TTITLE9=True
TTITLE10=King Of The Mountain
TTITLE11=Round About Way
TTITLE12=You Can't Make A Heart Love Somebody
TTITLE13=One Night At A Time
TTITLE14=Today My World Slipped Away
TTITLE15=A Love Without End, Amen
EXTD=YEAR: 2000 ID3G: 2
EXTT0=
EXTT1=
EXTT2=
EXTT3=
EXTT4=
EXTT5=
EXTT6=
EXTT7=
EXTT8=
EXTT9=
EXTT10=
EXTT11=
EXTT12=
EXTT13=
EXTT14=
EXTT15=
PLAYORDER=
